<svg xmlns="http://www.w3.org/2000/svg" xmlns:xlink="http://www.w3.org/1999/xlink" width="324" zoomAndPan="magnify" viewBox="0 0 242.87999 242.999999" height="324" preserveAspectRatio="xMidYMid meet" version="1.0"><defs><clipPath id="44c8d01cc6"><path d="M 0 0.0585938 L 242.761719 0.0585938 L 242.761719 242.9375 L 0 242.9375 Z M 0 0.0585938 " clip-rule="nonzero"/></clipPath><clipPath id="72c28a6bf4"><path d="M 121.441406 0.0585938 C 54.371094 0.0585938 0 54.429688 0 121.5 C 0 188.570312 54.371094 242.941406 121.441406 242.941406 C 188.507812 242.941406 242.878906 188.570312 242.878906 121.5 C 242.878906 54.429688 188.507812 0.0585938 121.441406 0.0585938 Z M 121.441406 0.0585938 " clip-rule="nonzero"/></clipPath><clipPath id="c8c9b4321a"><path d="M 18 30.625 L 213.652344 30.625 L 213.652344 218 L 18 218 Z M 18 30.625 " clip-rule="nonzero"/></clipPath><clipPath id="943a917b6d"><path d="M 154 120 L 225 120 L 225 174 L 154 174 Z M 154 120 " clip-rule="nonzero"/></clipPath><clipPath id="2acaac6461"><path d="M 180.832031 102.363281 L 226.351562 123.589844 L 194.988281 190.851562 L 149.46875 169.625 Z M 180.832031 102.363281 " clip-rule="nonzero"/></clipPath><clipPath id="4421c1b9c3"><path d="M 180.832031 102.363281 L 226.351562 123.589844 L 194.988281 190.851562 L 149.46875 169.625 Z M 180.832031 102.363281 " clip-rule="nonzero"/></clipPath><clipPath id="1943f44cd7"><path d="M 41 40.273438 L 95 40.273438 L 95 103 L 41 103 Z M 41 40.273438 " clip-rule="nonzero"/></clipPath><clipPath id="5b6d8072b9"><path d="M 72 78 L 95.953125 78 L 95.953125 121 L 72 121 Z M 72 78 " clip-rule="nonzero"/></clipPath></defs><g clip-path="url(#44c8d01cc6)"><g clip-path="url(#72c28a6bf4)"><path fill="#f5a3a5" d="M 0 0.0585938 L 242.878906 0.0585938 L 242.878906 242.941406 L 0 242.941406 Z M 0 0.0585938 " fill-opacity="1" fill-rule="nonzero"/></g></g><g clip-path="url(#c8c9b4321a)"><path fill="#d2dc23" d="M 154.414062 79.304688 C 153.480469 79.617188 152.558594 79.929688 151.621094 80.242188 C 166.675781 75.847656 181.390625 70.464844 195.882812 64.539062 C 182.039062 69.425781 168.324219 74.652344 154.414062 79.304688 Z M 129.105469 81.230469 C 129.367188 81.710938 129.625 82.191406 129.898438 82.671875 C 130.210938 82.566406 130.523438 82.476562 130.835938 82.371094 C 129.625 80.28125 128.429688 78.1875 127.222656 76.09375 C 125.207031 72.597656 123.242188 69.074219 121.269531 65.550781 C 123.738281 70.855469 126.257812 76.121094 129.105469 81.230469 Z M 123.296875 82.425781 C 123.632812 83.101562 123.984375 83.765625 124.335938 84.441406 C 125.195312 84.167969 126.066406 83.894531 126.921875 83.621094 C 121.253906 74.234375 115.769531 64.734375 111.117188 54.789062 C 114.417969 64.316406 118.679688 73.46875 123.296875 82.425781 Z M 136.046875 87.167969 C 154.78125 82.515625 173.394531 77.445312 191.761719 71.519531 C 192.945312 70.035156 194.207031 68.632812 195.3125 67.085938 C 175.824219 74.652344 156.015625 81.359375 135.828125 86.820312 C 135.90625 86.9375 135.984375 87.050781 136.046875 87.167969 Z M 132.8125 87.976562 C 133.175781 87.882812 133.527344 87.792969 133.890625 87.714844 C 133.824219 87.613281 133.761719 87.496094 133.707031 87.390625 C 133.355469 87.480469 132.992188 87.574219 132.640625 87.675781 C 132.695312 87.765625 132.757812 87.871094 132.8125 87.976562 Z M 126.9375 89.417969 C 127.9375 89.171875 128.949219 88.925781 129.953125 88.675781 C 129.898438 88.585938 129.847656 88.507812 129.796875 88.417969 C 128.808594 88.675781 127.804688 88.9375 126.820312 89.210938 C 126.859375 89.277344 126.898438 89.339844 126.9375 89.417969 Z M 104.589844 51.316406 C 103.238281 64.835938 101.199219 78.277344 99.300781 91.730469 C 107.191406 89.742188 114.964844 87.402344 122.722656 84.945312 C 117.71875 75.238281 113 65.316406 109.476562 54.972656 C 108.515625 52.148438 107.464844 49.484375 107.019531 46.546875 C 106.96875 46.289062 107.019531 46 106.902344 45.753906 C 106.476562 44.921875 106.097656 44.128906 105.65625 43.347656 C 105.03125 45.988281 104.734375 48.628906 104.589844 51.316406 Z M 96.207031 92.539062 C 96.402344 92.484375 96.582031 92.445312 96.777344 92.394531 C 96.90625 92.355469 97.023438 92.332031 97.15625 92.292969 C 97.609375 88.9375 98.066406 85.570312 98.507812 82.21875 C 98.859375 79.605469 99.195312 77.003906 99.535156 74.390625 C 98.414062 80.449219 97.101562 86.46875 96.207031 92.539062 Z M 112.949219 92.835938 C 117.042969 91.835938 121.152344 90.835938 125.246094 89.835938 C 125.207031 89.769531 125.179688 89.703125 125.140625 89.652344 C 121.113281 90.835938 116.925781 91.472656 112.949219 92.835938 Z M 82.464844 99.011719 C 70.871094 101.195312 59.261719 103.316406 47.628906 105.304688 C 56.546875 105.03125 65.421875 104.070312 74.199219 102.46875 C 80.074219 101.117188 85.78125 99.195312 91.527344 97.386719 C 91.539062 97.347656 91.539062 97.296875 91.550781 97.257812 C 88.445312 97.90625 85.546875 98.453125 82.464844 99.011719 Z M 34.539062 114.207031 C 32.953125 113.429688 31.417969 112.542969 29.910156 111.632812 C 28.894531 111.011719 27.84375 110.257812 27.425781 109.097656 C 26.492188 109.398438 25.53125 109.65625 24.828125 110.308594 C 25.074219 110.878906 25.738281 111.023438 26.191406 111.308594 C 28.882812 112.519531 31.742188 113.285156 34.539062 114.207031 Z M 137.84375 90.238281 C 141.910156 97.21875 145.886719 104.261719 149.890625 111.28125 C 150.59375 112.519531 151.308594 113.765625 152.023438 115 C 163.878906 102.5625 175.683594 90.03125 186.992188 77.109375 C 170.496094 81.269531 153.988281 85.402344 137.542969 89.71875 C 137.632812 89.886719 137.738281 90.070312 137.84375 90.238281 Z M 134.8125 91.578125 C 139.699219 100.234375 144.640625 108.851562 149.800781 117.339844 C 149.96875 117.160156 150.140625 116.976562 150.320312 116.792969 C 149.035156 114.507812 147.746094 112.21875 146.472656 109.917969 C 142.808594 103.351562 139.117188 96.800781 135.386719 90.277344 C 135.007812 90.378906 134.632812 90.472656 134.265625 90.574219 C 134.4375 90.914062 134.632812 91.25 134.8125 91.578125 Z M 132.199219 99.0625 C 136.554688 106.734375 140.898438 114.414062 145.460938 121.957031 C 145.628906 121.773438 145.796875 121.605469 145.953125 121.421875 C 146.371094 120.980469 146.796875 120.523438 147.214844 120.082031 C 142.210938 110.359375 137.230469 100.625 131.5 91.304688 C 130.472656 91.578125 129.429688 91.847656 128.40625 92.136719 C 129.664062 94.449219 130.914062 96.777344 132.199219 99.0625 Z M 53.789062 120.109375 C 59.121094 121.734375 64.460938 123.359375 69.792969 125.011719 C 60.875 121.136719 51.90625 117.394531 42.894531 113.738281 C 38.359375 112.089844 33.992188 109.683594 29.222656 109.019531 C 33.289062 112.21875 38.28125 113.910156 42.933594 116 C 46.496094 117.523438 50.046875 119.082031 53.789062 120.109375 Z M 86.210938 130.289062 C 87.496094 120.746094 89.082031 111.242188 90.746094 101.753906 C 83.582031 103.378906 76.292969 104.484375 69.335938 106.902344 C 64.644531 108.226562 60.054688 110.023438 55.246094 110.855469 C 54.59375 110.957031 53.933594 110.503906 53.761719 109.878906 C 53.414062 108.554688 54.882812 108.109375 55.816406 107.695312 C 51.710938 107.902344 47.613281 108.28125 43.507812 108.203125 C 40.789062 108.058594 37.890625 108.320312 35.355469 107.175781 C 34.941406 107.253906 34.523438 107.34375 34.160156 107.421875 C 33.367188 107.605469 32.5625 107.785156 31.769531 107.957031 C 43.609375 112.230469 55.089844 117.40625 66.683594 122.320312 C 73.171875 125.074219 79.4375 128.324219 86.210938 130.289062 Z M 91.628906 132.132812 C 92.683594 124.789062 93.722656 117.445312 94.738281 110.085938 C 95.179688 106.890625 95.621094 103.691406 96.050781 100.492188 C 95.777344 100.558594 95.503906 100.625 95.230469 100.703125 C 94.996094 102.691406 94.75 104.679688 94.515625 106.667969 C 93.515625 115.144531 92.5 123.621094 91.5 132.09375 C 91.539062 132.09375 91.578125 132.121094 91.628906 132.132812 Z M 83.6875 132.445312 C 84.390625 132.746094 85.089844 133.042969 85.792969 133.328125 C 85.820312 133.132812 85.84375 132.941406 85.871094 132.746094 C 85.882812 132.640625 85.898438 132.550781 85.910156 132.445312 C 79.644531 129.054688 72.730469 127.3125 65.957031 125.21875 C 71.882812 127.570312 77.8125 129.960938 83.6875 132.445312 Z M 91.410156 133.695312 C 91.421875 133.628906 91.433594 133.550781 91.433594 133.484375 C 91.394531 133.472656 91.371094 133.460938 91.332031 133.445312 C 91.316406 133.511719 91.316406 133.578125 91.304688 133.640625 C 91.34375 133.667969 91.371094 133.679688 91.410156 133.695312 Z M 91.136719 135.589844 C 91.160156 135.394531 91.1875 135.203125 91.214844 135.007812 C 91.1875 134.992188 91.175781 134.980469 91.148438 134.980469 C 91.125 135.175781 91.097656 135.382812 91.085938 135.578125 C 91.097656 135.578125 91.109375 135.578125 91.136719 135.589844 Z M 77.03125 135.148438 C 79.722656 136.226562 82.402344 137.308594 85.089844 138.386719 C 85.15625 137.929688 85.222656 137.476562 85.273438 137.019531 C 83.871094 136.65625 82.480469 136.28125 81.074219 135.890625 C 78.746094 135.253906 76.421875 134.601562 74.09375 133.964844 C 75.082031 134.371094 76.058594 134.757812 77.03125 135.148438 Z M 155.285156 126.425781 C 157.78125 130.457031 160.316406 134.460938 162.839844 138.476562 C 161.695312 136.554688 160.550781 134.628906 159.421875 132.707031 C 158.03125 130.339844 156.664062 127.972656 155.300781 125.59375 C 155.195312 125.710938 155.089844 125.828125 154.988281 125.945312 C 155.089844 126.101562 155.195312 126.269531 155.285156 126.425781 Z M 98.414062 138.554688 C 97.246094 137.96875 96.074219 137.386719 94.894531 136.789062 C 94.917969 136.800781 94.945312 136.8125 94.972656 136.828125 C 94.292969 136.5 93.617188 136.175781 92.957031 135.851562 C 92.929688 136.019531 92.902344 136.175781 92.890625 136.34375 C 94.464844 137.007812 96.050781 137.683594 97.621094 138.347656 C 97.882812 138.414062 98.15625 138.476562 98.414062 138.554688 Z M 94.699219 133.199219 C 104.640625 136.851562 114.558594 140.582031 124.257812 144.859375 C 130.785156 137.59375 137.492188 130.484375 144.160156 123.347656 C 138.152344 113.207031 132.332031 102.964844 126.742188 92.589844 C 117.210938 95.085938 107.710938 97.699219 98.117188 99.988281 C 96.804688 109.074219 95.503906 118.171875 94.191406 127.257812 C 93.929688 129.078125 93.65625 130.910156 93.398438 132.730469 C 93.839844 132.886719 94.269531 133.042969 94.699219 133.199219 Z M 110.402344 142.078125 C 112.9375 142.9375 115.484375 143.78125 118.019531 144.640625 C 119.644531 145.183594 121.242188 145.796875 122.855469 146.378906 C 122.957031 146.261719 123.0625 146.148438 123.164062 146.03125 C 113.339844 141.648438 103.316406 137.734375 93.203125 134.070312 C 93.175781 134.214844 93.164062 134.355469 93.136719 134.5 C 98.882812 137.203125 104.238281 140.53125 110.402344 142.078125 Z M 121.113281 148.355469 C 121.175781 148.277344 121.253906 148.1875 121.332031 148.109375 C 120.109375 147.65625 118.902344 147.210938 117.679688 146.746094 C 117.667969 146.746094 117.652344 146.730469 117.628906 146.730469 C 117.730469 146.769531 117.746094 146.769531 117.160156 146.574219 C 117.550781 146.769531 117.941406 146.980469 118.332031 147.171875 C 119.253906 147.5625 120.1875 147.964844 121.113281 148.355469 Z M 163.488281 150.253906 C 159.617188 143.285156 155.792969 136.292969 152.050781 129.273438 C 151.621094 129.753906 151.203125 130.222656 150.777344 130.703125 C 151.203125 131.394531 151.648438 132.070312 152.074219 132.757812 C 155.730469 138.582031 159.511719 144.3125 163.320312 150.035156 C 163.308594 150.007812 163.292969 149.980469 163.308594 150.007812 C 163.359375 150.085938 163.425781 150.164062 163.488281 150.253906 Z M 100.988281 144.988281 C 104.992188 146.707031 109.023438 148.394531 113.011719 150.164062 C 114.597656 150.867188 116.171875 151.566406 117.757812 152.269531 C 118.371094 151.554688 118.992188 150.828125 119.605469 150.113281 C 110.558594 146.445312 101.835938 141.792969 92.5 138.957031 C 92.382812 139.738281 92.28125 140.519531 92.164062 141.3125 C 95.113281 142.519531 98.066406 143.730469 100.988281 144.988281 Z M 131.65625 152.917969 C 139.972656 156.546875 148.292969 160.1875 156.613281 163.8125 C 157.757812 164.304688 158.902344 164.8125 160.042969 165.308594 C 150.816406 160.472656 141.402344 155.972656 131.71875 152.152344 C 131.589844 152.296875 131.472656 152.4375 131.34375 152.566406 C 131.289062 152.621094 131.25 152.671875 131.199219 152.722656 C 131.355469 152.789062 131.5 152.855469 131.65625 152.917969 Z M 148.902344 166.152344 C 150.113281 166.671875 151.335938 167.207031 152.542969 167.726562 C 144.902344 163.304688 137.242188 158.886719 129.484375 154.675781 C 128.886719 155.351562 128.289062 156.039062 127.691406 156.714844 C 134.75 159.898438 141.808594 163.070312 148.902344 166.152344 Z M 171.09375 167.699219 C 171.757812 168.023438 172.40625 168.335938 173.054688 168.660156 C 165.242188 156.453125 157.015625 144.523438 149.476562 132.148438 C 149.113281 132.5625 148.734375 132.980469 148.371094 133.394531 C 143.652344 138.683594 138.960938 143.988281 134.253906 149.28125 C 141.898438 152.816406 149.695312 156.558594 157.105469 160.394531 C 161.773438 162.824219 166.324219 165.488281 171.09375 167.699219 Z M 179.867188 172.171875 C 177.789062 167.632812 174.773438 163.589844 172.171875 159.339844 C 166.777344 150.917969 161.304688 142.53125 156.117188 133.980469 C 159.953125 140.84375 163.8125 147.695312 167.777344 154.480469 C 171.613281 160.484375 174.707031 167.191406 179.867188 172.171875 Z M 84.972656 195.75 C 87.664062 191.890625 90.71875 188.277344 93.515625 184.507812 C 100.792969 173.625 108.488281 163.085938 117.015625 153.152344 C 108.738281 149.433594 100.378906 145.953125 92.007812 142.492188 C 90.355469 154.035156 88.679688 165.582031 87.042969 177.125 C 86.105469 183.296875 85.246094 189.5 84.972656 195.75 Z M 79.449219 217.628906 C 77.371094 217.1875 78.046875 214.691406 78.226562 213.171875 C 78.644531 207.269531 79.476562 201.40625 79.867188 195.503906 C 81.074219 176.835938 82.609375 158.183594 84.921875 139.621094 C 72.9375 134.851562 60.925781 130.144531 48.796875 125.738281 C 43.128906 123.632812 37.539062 121.316406 31.976562 118.914062 C 27.453125 116.910156 22.734375 115.144531 18.757812 112.128906 C 18.003906 111.570312 18.625 110.230469 19.550781 110.542969 C 21.148438 111.035156 22.527344 111.984375 24.007812 112.738281 C 42.78125 122.722656 63.046875 129.390625 83.570312 134.640625 C 71.011719 129.285156 58.289062 124.359375 45.652344 119.171875 C 38.671875 116.925781 31.300781 115.402344 24.605469 112.453125 C 18.277344 108.03125 31.5625 105.769531 34.367188 104.953125 C 35.8125 102.988281 38.984375 103.238281 41.179688 102.832031 C 43.714844 102.507812 46.25 102.210938 48.785156 101.832031 C 63.199219 98.726562 77.839844 96.632812 92.226562 93.421875 C 93.8125 85.039062 95.375 76.652344 96.402344 68.179688 C 96.777344 65.460938 97.21875 62.757812 97.675781 60.039062 C 97.933594 58.597656 98.089844 56.984375 99.128906 55.867188 C 99.871094 51.863281 100.664062 47.859375 101.328125 43.84375 C 102.628906 40.789062 103.121094 37.449219 104.253906 34.289062 C 104.667969 33.300781 105.449219 30.625 106.773438 30.894531 C 107.175781 31 107.449219 31.378906 107.449219 31.78125 C 107.539062 34.78125 106.644531 37.695312 106.164062 40.632812 C 107.371094 41.28125 107.984375 42.542969 108.644531 43.6875 C 109.4375 43.988281 109.828125 44.804688 110.21875 45.507812 C 110.855469 46.664062 111.542969 47.796875 112.144531 48.976562 C 111.621094 47.875 111.101562 46.78125 110.570312 45.6875 C 110.179688 45 109.296875 43.988281 109.816406 43.167969 C 110.113281 42.6875 110.828125 42.660156 111.117188 43.167969 C 118.277344 56.0625 125.246094 69.0625 132.835938 81.722656 C 150.542969 76.082031 168.183594 70.269531 185.886719 64.628906 C 188.527344 63.5625 191.164062 62.484375 193.828125 61.46875 C 195.816406 60.847656 197.925781 59.585938 200.042969 60.117188 C 203.929688 58.972656 207.75 57.453125 211.808594 57.039062 C 212.988281 56.894531 213.859375 58.285156 213.09375 59.261719 C 211.9375 60.898438 209.910156 61.429688 208.140625 62.121094 C 205.789062 63.042969 203.421875 63.953125 201.070312 64.863281 C 200.054688 66.695312 198.769531 68.386719 197.480469 70.023438 C 197.480469 70.023438 197.496094 70.035156 197.496094 70.035156 C 197.574219 70.140625 197.636719 70.246094 197.703125 70.363281 C 199.289062 69.347656 201.160156 71.335938 199.992188 72.859375 C 197.078125 76.769531 193.882812 80.476562 190.773438 84.246094 C 179.894531 97.710938 168.402344 110.632812 156.988281 123.644531 C 167.296875 141.492188 178.710938 158.664062 189.226562 176.34375 C 189.65625 177.125 189.824219 178.097656 189.292969 178.867188 C 188.835938 179.722656 187.550781 179.773438 186.980469 179.007812 C 185.535156 177.175781 184.289062 175.238281 182.988281 173.328125 C 182.820312 173.066406 182.636719 172.808594 182.480469 172.964844 C 182.402344 173.976562 181.84375 175.5 180.558594 174.964844 C 182.363281 177.707031 184.066406 180.515625 185.808594 183.296875 C 186.679688 184.703125 187.589844 186.09375 188.410156 187.523438 C 188.746094 188.109375 188.601562 188.875 188.070312 189.289062 C 187.460938 189.757812 186.628906 189.617188 186.148438 189.042969 C 183.753906 185.574219 181.636719 181.921875 179.308594 178.398438 C 177.761719 176.148438 176.683594 173.316406 173.902344 172.339844 C 173.667969 172.988281 172.863281 173.367188 172.210938 173.160156 C 168.363281 172.105469 164.789062 170.3125 161.164062 168.675781 C 154.703125 165.722656 148.242188 162.785156 141.769531 159.875 C 150.503906 164.710938 159.054688 169.894531 167.988281 174.394531 C 170.496094 175.484375 173.03125 176.527344 175.539062 177.644531 C 176.449219 178.113281 177.605469 178.253906 178.230469 179.125 C 178.710938 179.839844 178.046875 180.699219 177.242188 180.414062 C 172.730469 178.867188 168.597656 176.472656 164.335938 174.394531 C 151.828125 168.855469 139.351562 163.265625 126.910156 157.597656 C 123.582031 161.316406 120.304688 165.074219 116.992188 168.804688 C 117.015625 168.765625 117.042969 168.753906 117.082031 168.714844 C 105.667969 181.6875 95.046875 195.335938 84.15625 208.75 C 84.066406 210.753906 84.027344 212.753906 84.15625 214.730469 C 84.207031 215.316406 84.273438 215.898438 84.375 216.472656 C 84.402344 216.652344 84.507812 216.863281 84.546875 217.019531 C 83.675781 214.601562 83.765625 211.910156 83.597656 209.363281 C 83.414062 209.554688 83.246094 209.738281 83.0625 209.933594 C 82.867188 210.15625 82.609375 210.308594 82.324219 210.402344 C 81.984375 212.53125 81.660156 214.664062 81.046875 216.730469 C 80.855469 217.445312 80.113281 217.785156 79.449219 217.628906 Z M 79.449219 217.628906 " fill-opacity="1" fill-rule="nonzero"/></g><g clip-path="url(#943a917b6d)"><g clip-path="url(#2acaac6461)"><g clip-path="url(#4421c1b9c3)"><path fill="#a988bd" d="M 206.722656 162.003906 C 207.179688 161.816406 207.582031 161.460938 207.820312 160.917969 C 213.324219 149.019531 218.546875 137.023438 224.371094 125.257812 C 225.070312 123.824219 223.835938 122.417969 222.394531 122.449219 C 216.949219 122.554688 211.445312 121.890625 206.007812 121.566406 C 200.886719 121.277344 195.789062 121.015625 190.667969 120.867188 C 190.332031 120.007812 189.039062 119.660156 188.515625 120.746094 C 185.238281 127.5625 182.410156 134.589844 179.714844 141.644531 C 177.382812 147.746094 174.875 153.976562 173.046875 160.300781 C 168.457031 158.464844 162.980469 157.097656 158.425781 159.027344 C 153.484375 161.109375 152.738281 167.070312 156.320312 170.824219 C 160.03125 174.71875 167.222656 174.722656 171.734375 172.324219 C 173.878906 171.195312 175.671875 169.277344 175.761719 166.742188 C 175.777344 166.234375 175.734375 165.734375 175.621094 165.265625 C 176.027344 165.039062 176.363281 164.699219 176.527344 164.277344 C 179.042969 157.265625 180.890625 149.976562 183.257812 142.910156 C 184.191406 140.113281 185.160156 137.3125 186.152344 134.539062 C 188.210938 134.761719 190.324219 134.625 192.382812 134.671875 C 194.96875 134.726562 197.539062 134.851562 200.121094 135.015625 C 202.535156 135.164062 204.933594 135.371094 207.339844 135.640625 C 209.640625 135.898438 211.953125 136.398438 214.257812 136.496094 C 211.113281 142.832031 208.0625 149.207031 205.269531 155.675781 C 202.097656 152.753906 197.511719 151.671875 193.292969 153.675781 C 187.757812 156.300781 185.503906 163.195312 190.171875 167.789062 C 194.363281 171.921875 202.308594 171.605469 205.71875 166.597656 C 206.746094 165.042969 207.003906 163.464844 206.722656 162.003906 Z M 159.65625 165.492188 C 159.675781 165.453125 159.707031 165.417969 159.726562 165.378906 C 159.414062 166.355469 159.402344 167.410156 159.773438 168.367188 C 159.054688 167.742188 158.847656 166.8125 159.65625 165.492188 Z M 171.039062 169.246094 C 171.496094 168.882812 171.933594 168.496094 172.292969 168.070312 C 171.976562 168.546875 171.542969 168.921875 171.039062 169.246094 Z M 214.914062 132.238281 C 212.535156 131.578125 209.839844 131.554688 207.382812 131.355469 C 204.910156 131.160156 202.425781 131.027344 199.929688 130.953125 C 195.886719 130.832031 191.402344 130.597656 187.296875 131.261719 C 188.308594 128.402344 189.339844 125.535156 190.339844 122.667969 C 195.621094 123.402344 200.902344 123.992188 206.191406 124.566406 C 210.613281 125.042969 215.136719 125.308594 219.550781 125.941406 C 218.351562 128.269531 217.164062 130.613281 215.992188 132.949219 C 215.730469 132.621094 215.359375 132.351562 214.914062 132.238281 Z M 200.691406 165.730469 C 200.195312 166.007812 199.609375 166.199219 198.980469 166.308594 C 200.222656 165.84375 201.324219 165.125 202.066406 164.191406 C 202.199219 164.109375 202.328125 164.007812 202.449219 163.921875 C 202.164062 164.605469 201.574219 165.242188 200.691406 165.730469 Z M 200.691406 165.730469 " fill-opacity="1" fill-rule="nonzero"/></g></g></g><g clip-path="url(#1943f44cd7)"><path fill="#a988bd" d="M 85.035156 52.859375 C 81.558594 51.890625 79.515625 48.269531 80.484375 44.792969 C 80.96875 43.050781 79.949219 41.246094 78.207031 40.757812 C 76.464844 40.273438 74.660156 41.292969 74.175781 43.035156 L 63.753906 80.460938 C 62.1875 78.851562 60.195312 77.621094 57.878906 76.976562 C 50.898438 75.035156 43.636719 79.132812 41.691406 86.113281 C 39.746094 93.09375 43.847656 100.355469 50.828125 102.300781 C 57.808594 104.242188 65.070312 100.144531 67.015625 93.164062 L 77.441406 55.714844 C 79 57.308594 80.980469 58.527344 83.277344 59.167969 C 86.757812 60.136719 88.800781 63.753906 87.832031 67.234375 C 87.34375 68.976562 88.363281 70.78125 90.105469 71.265625 C 91.847656 71.75 93.652344 70.734375 94.140625 68.988281 C 96.078125 62.03125 91.996094 54.796875 85.035156 52.859375 Z M 85.035156 52.859375 " fill-opacity="1" fill-rule="nonzero"/></g><g clip-path="url(#5b6d8072b9)"><path fill="#a988bd" d="M 86.058594 83.246094 C 83.886719 83.796875 81.675781 82.476562 81.125 80.308594 C 80.847656 79.21875 79.742188 78.5625 78.65625 78.835938 C 77.570312 79.113281 76.910156 80.21875 77.1875 81.304688 L 83.109375 104.65625 C 81.773438 104.273438 80.320312 104.226562 78.875 104.589844 C 74.519531 105.695312 71.875 110.140625 72.980469 114.496094 C 74.085938 118.851562 78.527344 121.496094 82.882812 120.390625 C 87.238281 119.285156 89.882812 114.84375 88.777344 110.488281 L 82.851562 87.121094 C 84.183594 87.496094 85.625 87.542969 87.058594 87.179688 C 89.226562 86.628906 91.441406 87.949219 91.992188 90.117188 C 92.269531 91.207031 93.371094 91.863281 94.460938 91.589844 C 95.546875 91.3125 96.203125 90.207031 95.929688 89.121094 C 94.828125 84.78125 90.402344 82.144531 86.058594 83.246094 Z M 86.058594 83.246094 " fill-opacity="1" fill-rule="nonzero"/></g></svg>